<mxfile host="app.diagrams.net" modified="2023-08-10T17:30:09.122Z" agent="Mozilla/5.0 (X11; Linux x86_64) AppleWebKit/537.36 (KHTML, like Gecko) Chrome/115.0.0.0 Safari/537.36" etag="l4fINxF_KYplPxv-_Vqq" version="21.6.7" type="github">
  <diagram name="Page-1" id="MCT49AQhwEGtnlmwYJ10">
    <mxGraphModel dx="452" dy="759" grid="1" gridSize="10" guides="1" tooltips="1" connect="1" arrows="1" fold="1" page="1" pageScale="1" pageWidth="850" pageHeight="1100" math="0" shadow="0">
      <root>
        <mxCell id="0" />
        <mxCell id="1" parent="0" />
        <mxCell id="4GmKf-bt9O3A-WDNOiVA-9" value="" style="rounded=1;whiteSpace=wrap;html=1;" vertex="1" parent="1">
          <mxGeometry y="15" width="130" height="130" as="geometry" />
        </mxCell>
        <mxCell id="4GmKf-bt9O3A-WDNOiVA-1" value="" style="image;points=[];aspect=fixed;html=1;align=center;shadow=0;dashed=0;image=img/lib/allied_telesis/computer_and_terminals/Personal_Computer.svg;" vertex="1" parent="1">
          <mxGeometry x="70" y="65" width="45.6" height="61.800000000000004" as="geometry" />
        </mxCell>
        <mxCell id="4GmKf-bt9O3A-WDNOiVA-4" value="" style="sketch=0;html=1;dashed=0;whitespace=wrap;fillColor=#2875E2;strokeColor=#ffffff;points=[[0.005,0.63,0],[0.1,0.2,0],[0.9,0.2,0],[0.5,0,0],[0.995,0.63,0],[0.72,0.99,0],[0.5,1,0],[0.28,0.99,0]];verticalLabelPosition=bottom;align=center;verticalAlign=top;shape=mxgraph.kubernetes.icon;prIcon=user" vertex="1" parent="1">
          <mxGeometry x="10" y="85" width="50" height="48" as="geometry" />
        </mxCell>
        <mxCell id="4GmKf-bt9O3A-WDNOiVA-11" value="Postes utilisateurs" style="rounded=1;whiteSpace=wrap;html=1;" vertex="1" parent="1">
          <mxGeometry x="10" y="25" width="90" height="30" as="geometry" />
        </mxCell>
        <mxCell id="4GmKf-bt9O3A-WDNOiVA-13" value="" style="rounded=1;whiteSpace=wrap;html=1;" vertex="1" parent="1">
          <mxGeometry y="175" width="130" height="130" as="geometry" />
        </mxCell>
        <mxCell id="4GmKf-bt9O3A-WDNOiVA-14" value="" style="image;points=[];aspect=fixed;html=1;align=center;shadow=0;dashed=0;image=img/lib/allied_telesis/computer_and_terminals/Personal_Computer.svg;" vertex="1" parent="1">
          <mxGeometry x="70" y="225" width="45.6" height="61.800000000000004" as="geometry" />
        </mxCell>
        <mxCell id="4GmKf-bt9O3A-WDNOiVA-15" value="" style="sketch=0;html=1;dashed=0;whitespace=wrap;fillColor=#2875E2;strokeColor=#ffffff;points=[[0.005,0.63,0],[0.1,0.2,0],[0.9,0.2,0],[0.5,0,0],[0.995,0.63,0],[0.72,0.99,0],[0.5,1,0],[0.28,0.99,0]];verticalLabelPosition=bottom;align=center;verticalAlign=top;shape=mxgraph.kubernetes.icon;prIcon=user" vertex="1" parent="1">
          <mxGeometry x="10" y="245" width="50" height="48" as="geometry" />
        </mxCell>
        <mxCell id="4GmKf-bt9O3A-WDNOiVA-16" value="Postes administrateurs" style="rounded=1;whiteSpace=wrap;html=1;" vertex="1" parent="1">
          <mxGeometry x="10" y="185" width="90" height="30" as="geometry" />
        </mxCell>
        <mxCell id="4GmKf-bt9O3A-WDNOiVA-17" value="" style="endArrow=none;html=1;rounded=0;exitX=1;exitY=0.5;exitDx=0;exitDy=0;" edge="1" parent="1" source="4GmKf-bt9O3A-WDNOiVA-9">
          <mxGeometry width="50" height="50" relative="1" as="geometry">
            <mxPoint x="190" y="305" as="sourcePoint" />
            <mxPoint x="240" y="80" as="targetPoint" />
          </mxGeometry>
        </mxCell>
        <mxCell id="4GmKf-bt9O3A-WDNOiVA-18" value="" style="endArrow=none;html=1;rounded=0;exitX=1;exitY=0.5;exitDx=0;exitDy=0;" edge="1" parent="1" source="4GmKf-bt9O3A-WDNOiVA-13">
          <mxGeometry width="50" height="50" relative="1" as="geometry">
            <mxPoint x="150" y="245" as="sourcePoint" />
            <mxPoint x="240" y="240" as="targetPoint" />
          </mxGeometry>
        </mxCell>
      </root>
    </mxGraphModel>
  </diagram>
</mxfile>
